<mxfile host="app.diagrams.net" modified="2023-09-09T09:21:38.230Z" agent="Mozilla/5.0 (Windows NT 10.0; Win64; x64) AppleWebKit/537.36 (KHTML, like Gecko) Chrome/116.0.0.0 Safari/537.36 Edg/116.0.1938.69" etag="xqOx9bKx6W5Pak_1wHpA" version="21.7.2" type="github" pages="3">
  <diagram name="第 1 页" id="tbNAQEeTbe8jgCemLPBB">
    <mxGraphModel dx="1980" dy="1133" grid="1" gridSize="10" guides="1" tooltips="1" connect="1" arrows="1" fold="1" page="1" pageScale="1" pageWidth="827" pageHeight="1169" math="0" shadow="0">
      <root>
        <mxCell id="0" />
        <mxCell id="1" parent="0" />
        <mxCell id="WIPg4IyiBnpdyHLyORIN-1" value="" style="image;points=[];aspect=fixed;html=1;align=center;shadow=0;dashed=0;image=img/lib/allied_telesis/storage/Datacenter_Server_Storage_Unit_Large.svg;" vertex="1" parent="1">
          <mxGeometry x="375" y="145.4" width="76.8" height="79.2" as="geometry" />
        </mxCell>
        <mxCell id="WIPg4IyiBnpdyHLyORIN-4" value="" style="shape=image;html=1;verticalAlign=top;verticalLabelPosition=bottom;labelBackgroundColor=#ffffff;imageAspect=0;aspect=fixed;image=https://cdn0.iconfinder.com/data/icons/social-media-2104/24/social_media_social_media_logo_wechat-128.png" vertex="1" parent="1">
          <mxGeometry x="640" y="152.5" width="65" height="65" as="geometry" />
        </mxCell>
        <mxCell id="WIPg4IyiBnpdyHLyORIN-18" style="edgeStyle=orthogonalEdgeStyle;rounded=0;orthogonalLoop=1;jettySize=auto;html=1;exitX=0.5;exitY=1;exitDx=0;exitDy=0;entryX=0.5;entryY=0;entryDx=0;entryDy=0;dashed=1;" edge="1" parent="1" source="WIPg4IyiBnpdyHLyORIN-5" target="WIPg4IyiBnpdyHLyORIN-12">
          <mxGeometry relative="1" as="geometry" />
        </mxCell>
        <mxCell id="WIPg4IyiBnpdyHLyORIN-5" value="" style="shape=image;html=1;verticalAlign=top;verticalLabelPosition=bottom;labelBackgroundColor=#ffffff;imageAspect=0;aspect=fixed;image=https://cdn2.iconfinder.com/data/icons/freecns-cumulus/16/519647-150_Glasses-128.png" vertex="1" parent="1">
          <mxGeometry x="70" y="121" width="128" height="128" as="geometry" />
        </mxCell>
        <mxCell id="WIPg4IyiBnpdyHLyORIN-7" value="air2" style="text;html=1;strokeColor=none;fillColor=none;align=center;verticalAlign=middle;whiteSpace=wrap;rounded=0;fontSize=21;" vertex="1" parent="1">
          <mxGeometry x="104" y="100" width="60" height="30" as="geometry" />
        </mxCell>
        <mxCell id="WIPg4IyiBnpdyHLyORIN-8" value="云服务器" style="text;html=1;strokeColor=none;fillColor=none;align=center;verticalAlign=middle;whiteSpace=wrap;rounded=0;fontSize=21;" vertex="1" parent="1">
          <mxGeometry x="366" y="100" width="95" height="30" as="geometry" />
        </mxCell>
        <mxCell id="WIPg4IyiBnpdyHLyORIN-11" value="微信公众号" style="text;html=1;strokeColor=none;fillColor=none;align=center;verticalAlign=middle;whiteSpace=wrap;rounded=0;fontSize=21;" vertex="1" parent="1">
          <mxGeometry x="610" y="100" width="125" height="30" as="geometry" />
        </mxCell>
        <mxCell id="WIPg4IyiBnpdyHLyORIN-14" style="edgeStyle=orthogonalEdgeStyle;rounded=0;orthogonalLoop=1;jettySize=auto;html=1;exitX=1;exitY=0.5;exitDx=0;exitDy=0;entryX=0;entryY=0.25;entryDx=0;entryDy=0;" edge="1" parent="1" source="WIPg4IyiBnpdyHLyORIN-12" target="WIPg4IyiBnpdyHLyORIN-13">
          <mxGeometry relative="1" as="geometry" />
        </mxCell>
        <mxCell id="WIPg4IyiBnpdyHLyORIN-12" value="" style="rounded=0;whiteSpace=wrap;html=1;" vertex="1" parent="1">
          <mxGeometry x="96" y="327" width="76" height="170" as="geometry" />
        </mxCell>
        <mxCell id="WIPg4IyiBnpdyHLyORIN-17" style="edgeStyle=orthogonalEdgeStyle;rounded=0;orthogonalLoop=1;jettySize=auto;html=1;exitX=0;exitY=0.5;exitDx=0;exitDy=0;entryX=1;entryY=0.75;entryDx=0;entryDy=0;" edge="1" parent="1" source="WIPg4IyiBnpdyHLyORIN-13" target="WIPg4IyiBnpdyHLyORIN-12">
          <mxGeometry relative="1" as="geometry" />
        </mxCell>
        <mxCell id="WIPg4IyiBnpdyHLyORIN-13" value="生成验证码随机数" style="rounded=0;whiteSpace=wrap;html=1;" vertex="1" parent="1">
          <mxGeometry x="385" y="370" width="76" height="170" as="geometry" />
        </mxCell>
        <mxCell id="WIPg4IyiBnpdyHLyORIN-15" value="&lt;font style=&quot;font-size: 16px;&quot;&gt;建立通讯&lt;/font&gt;" style="text;html=1;align=center;verticalAlign=middle;resizable=0;points=[];autosize=1;strokeColor=none;fillColor=none;" vertex="1" parent="1">
          <mxGeometry x="215" y="360" width="90" height="30" as="geometry" />
        </mxCell>
        <mxCell id="WIPg4IyiBnpdyHLyORIN-16" value="&lt;font style=&quot;font-size: 16px;&quot;&gt;传输硬件识别码&lt;/font&gt;" style="text;html=1;align=center;verticalAlign=middle;resizable=0;points=[];autosize=1;strokeColor=none;fillColor=none;" vertex="1" parent="1">
          <mxGeometry x="190" y="380" width="140" height="30" as="geometry" />
        </mxCell>
        <mxCell id="WIPg4IyiBnpdyHLyORIN-19" value="" style="endArrow=classic;html=1;rounded=1;entryX=1;entryY=0.25;entryDx=0;entryDy=0;" edge="1" parent="1" target="WIPg4IyiBnpdyHLyORIN-12">
          <mxGeometry width="50" height="50" relative="1" as="geometry">
            <mxPoint x="134" y="292" as="sourcePoint" />
            <mxPoint x="564" y="292" as="targetPoint" />
            <Array as="points">
              <mxPoint x="210" y="292" />
              <mxPoint x="210" y="370" />
            </Array>
          </mxGeometry>
        </mxCell>
        <mxCell id="WIPg4IyiBnpdyHLyORIN-20" value="&lt;font style=&quot;font-size: 16px;&quot;&gt;启动应用&lt;/font&gt;" style="text;html=1;align=center;verticalAlign=middle;resizable=0;points=[];autosize=1;strokeColor=none;fillColor=none;" vertex="1" parent="1">
          <mxGeometry x="200" y="297" width="90" height="30" as="geometry" />
        </mxCell>
        <mxCell id="WIPg4IyiBnpdyHLyORIN-21" value="&lt;font style=&quot;font-size: 16px;&quot;&gt;传输随机验证码（8位）&lt;/font&gt;" style="text;html=1;align=center;verticalAlign=middle;resizable=0;points=[];autosize=1;strokeColor=none;fillColor=none;" vertex="1" parent="1">
          <mxGeometry x="179" y="430" width="190" height="30" as="geometry" />
        </mxCell>
        <mxCell id="WIPg4IyiBnpdyHLyORIN-24" style="edgeStyle=orthogonalEdgeStyle;rounded=0;orthogonalLoop=1;jettySize=auto;html=1;exitX=0;exitY=0.75;exitDx=0;exitDy=0;entryX=1.009;entryY=0.342;entryDx=0;entryDy=0;entryPerimeter=0;" edge="1" parent="1" source="WIPg4IyiBnpdyHLyORIN-22" target="WIPg4IyiBnpdyHLyORIN-23">
          <mxGeometry relative="1" as="geometry" />
        </mxCell>
        <mxCell id="WIPg4IyiBnpdyHLyORIN-22" value="用户启动公众号输入随机验证码" style="rounded=0;whiteSpace=wrap;html=1;" vertex="1" parent="1">
          <mxGeometry x="610" y="570" width="76" height="170" as="geometry" />
        </mxCell>
        <mxCell id="WIPg4IyiBnpdyHLyORIN-23" value="校验随机验证码" style="rounded=0;whiteSpace=wrap;html=1;" vertex="1" parent="1">
          <mxGeometry x="385" y="640" width="76" height="170" as="geometry" />
        </mxCell>
        <mxCell id="WIPg4IyiBnpdyHLyORIN-25" value="&lt;font style=&quot;font-size: 16px;&quot;&gt;传输输入内容&lt;/font&gt;" style="text;html=1;align=center;verticalAlign=middle;resizable=0;points=[];autosize=1;strokeColor=none;fillColor=none;" vertex="1" parent="1">
          <mxGeometry x="485" y="670" width="120" height="30" as="geometry" />
        </mxCell>
        <mxCell id="WIPg4IyiBnpdyHLyORIN-27" value="校验随机验证码" style="rounded=0;whiteSpace=wrap;html=1;" vertex="1" parent="1">
          <mxGeometry x="385" y="850" width="76" height="170" as="geometry" />
        </mxCell>
      </root>
    </mxGraphModel>
  </diagram>
  <diagram id="AiDIZEmmGgKxxyYdE0Q1" name="第 2 页">
    <mxGraphModel dx="3599" dy="1586" grid="1" gridSize="10" guides="1" tooltips="1" connect="1" arrows="1" fold="1" page="1" pageScale="1" pageWidth="827" pageHeight="1169" math="0" shadow="0">
      <root>
        <mxCell id="0" />
        <mxCell id="1" parent="0" />
        <mxCell id="V5kMmdpQEaDHI8ah_SAi-24" value="微信公众号端" style="swimlane;whiteSpace=wrap;html=1;" vertex="1" parent="1">
          <mxGeometry x="480" y="300" width="300" height="1060" as="geometry" />
        </mxCell>
        <mxCell id="V5kMmdpQEaDHI8ah_SAi-2" value="" style="shape=image;html=1;verticalAlign=top;verticalLabelPosition=bottom;labelBackgroundColor=#ffffff;imageAspect=0;aspect=fixed;image=https://cdn0.iconfinder.com/data/icons/social-media-2104/24/social_media_social_media_logo_wechat-128.png" vertex="1" parent="V5kMmdpQEaDHI8ah_SAi-24">
          <mxGeometry x="117.5" y="71.5" width="65" height="65" as="geometry" />
        </mxCell>
        <mxCell id="4Fa01oT7hVqr7HHOkqir-5" value="打开微信公众号，输入随机验证码、硬件识别码" style="rounded=0;whiteSpace=wrap;html=1;" vertex="1" parent="V5kMmdpQEaDHI8ah_SAi-24">
          <mxGeometry x="90" y="420" width="120" height="60" as="geometry" />
        </mxCell>
        <mxCell id="4Fa01oT7hVqr7HHOkqir-14" value="传输输入内容" style="text;html=1;align=center;verticalAlign=middle;resizable=0;points=[];autosize=1;strokeColor=none;fillColor=none;" vertex="1" parent="V5kMmdpQEaDHI8ah_SAi-24">
          <mxGeometry x="-5" y="560" width="100" height="30" as="geometry" />
        </mxCell>
        <mxCell id="V5kMmdpQEaDHI8ah_SAi-25" value="云服务器端" style="swimlane;whiteSpace=wrap;html=1;" vertex="1" parent="1">
          <mxGeometry x="180" y="300" width="300" height="1060" as="geometry" />
        </mxCell>
        <mxCell id="V5kMmdpQEaDHI8ah_SAi-1" value="" style="image;points=[];aspect=fixed;html=1;align=center;shadow=0;dashed=0;image=img/lib/allied_telesis/storage/Datacenter_Server_Storage_Unit_Large.svg;" vertex="1" parent="V5kMmdpQEaDHI8ah_SAi-25">
          <mxGeometry x="111.60000000000002" y="64.39999999999998" width="76.8" height="79.2" as="geometry" />
        </mxCell>
        <mxCell id="V5kMmdpQEaDHI8ah_SAi-35" value="记录硬件识别码&lt;br&gt;生成八位随机验证码" style="rounded=0;whiteSpace=wrap;html=1;dashed=1;dashPattern=8 8;" vertex="1" parent="V5kMmdpQEaDHI8ah_SAi-25">
          <mxGeometry x="90" y="270" width="120" height="60" as="geometry" />
        </mxCell>
        <mxCell id="36JzOF9Vr0czZC-aHNhf-1" value="传输硬件识别码" style="text;html=1;align=center;verticalAlign=middle;resizable=0;points=[];autosize=1;strokeColor=none;fillColor=none;" vertex="1" parent="V5kMmdpQEaDHI8ah_SAi-25">
          <mxGeometry x="-10" y="270" width="110" height="30" as="geometry" />
        </mxCell>
        <mxCell id="4Fa01oT7hVqr7HHOkqir-4" value="传输随机验证码" style="text;html=1;align=center;verticalAlign=middle;resizable=0;points=[];autosize=1;strokeColor=none;fillColor=none;" vertex="1" parent="V5kMmdpQEaDHI8ah_SAi-25">
          <mxGeometry x="1.5999999999999943" y="370" width="110" height="30" as="geometry" />
        </mxCell>
        <mxCell id="4Fa01oT7hVqr7HHOkqir-13" style="edgeStyle=orthogonalEdgeStyle;rounded=0;orthogonalLoop=1;jettySize=auto;html=1;exitX=0.5;exitY=1;exitDx=0;exitDy=0;dashed=1;dashPattern=8 8;" edge="1" parent="V5kMmdpQEaDHI8ah_SAi-25" source="4Fa01oT7hVqr7HHOkqir-9" target="4Fa01oT7hVqr7HHOkqir-12">
          <mxGeometry relative="1" as="geometry" />
        </mxCell>
        <mxCell id="4Fa01oT7hVqr7HHOkqir-9" value="校验随机验证码是否正确" style="rhombus;whiteSpace=wrap;html=1;dashed=1;dashPattern=8 8;" vertex="1" parent="V5kMmdpQEaDHI8ah_SAi-25">
          <mxGeometry x="108.4" y="550" width="80" height="80" as="geometry" />
        </mxCell>
        <mxCell id="4Fa01oT7hVqr7HHOkqir-12" value="用户是否首次使用" style="rhombus;whiteSpace=wrap;html=1;dashed=1;dashPattern=8 8;" vertex="1" parent="V5kMmdpQEaDHI8ah_SAi-25">
          <mxGeometry x="193.99999999999997" y="680" width="80" height="80" as="geometry" />
        </mxCell>
        <mxCell id="4Fa01oT7hVqr7HHOkqir-19" value="等待重新输入" style="rounded=0;whiteSpace=wrap;html=1;dashed=1;dashPattern=8 8;" vertex="1" parent="V5kMmdpQEaDHI8ah_SAi-25">
          <mxGeometry x="120" y="890" width="120" height="60" as="geometry" />
        </mxCell>
        <mxCell id="4Fa01oT7hVqr7HHOkqir-20" value="用户是否首次使用" style="rhombus;whiteSpace=wrap;html=1;dashed=1;dashPattern=8 8;" vertex="1" parent="V5kMmdpQEaDHI8ah_SAi-25">
          <mxGeometry x="31.6" y="680" width="80" height="80" as="geometry" />
        </mxCell>
        <mxCell id="V5kMmdpQEaDHI8ah_SAi-26" value="眼镜端" style="swimlane;whiteSpace=wrap;html=1;" vertex="1" parent="1">
          <mxGeometry x="-140" y="300" width="320" height="1060" as="geometry" />
        </mxCell>
        <mxCell id="V5kMmdpQEaDHI8ah_SAi-4" value="" style="shape=image;html=1;verticalAlign=top;verticalLabelPosition=bottom;labelBackgroundColor=#ffffff;imageAspect=0;aspect=fixed;image=https://cdn2.iconfinder.com/data/icons/freecns-cumulus/16/519647-150_Glasses-128.png" vertex="1" parent="V5kMmdpQEaDHI8ah_SAi-26">
          <mxGeometry x="86" y="40" width="128" height="128" as="geometry" />
        </mxCell>
        <mxCell id="V5kMmdpQEaDHI8ah_SAi-27" value="启动应用" style="rounded=1;whiteSpace=wrap;html=1;" vertex="1" parent="V5kMmdpQEaDHI8ah_SAi-26">
          <mxGeometry x="90" y="168" width="120" height="60" as="geometry" />
        </mxCell>
        <mxCell id="36JzOF9Vr0czZC-aHNhf-2" value="建立通讯" style="text;html=1;align=center;verticalAlign=middle;resizable=0;points=[];autosize=1;strokeColor=none;fillColor=none;" vertex="1" parent="V5kMmdpQEaDHI8ah_SAi-26">
          <mxGeometry x="230" y="270" width="70" height="30" as="geometry" />
        </mxCell>
        <mxCell id="36JzOF9Vr0czZC-aHNhf-3" value="展示随机验证码与硬件识别码" style="rounded=0;whiteSpace=wrap;html=1;" vertex="1" parent="V5kMmdpQEaDHI8ah_SAi-26">
          <mxGeometry x="90" y="370" width="120" height="60" as="geometry" />
        </mxCell>
        <mxCell id="V5kMmdpQEaDHI8ah_SAi-29" value="&lt;h1&gt;流程图说明&lt;/h1&gt;&lt;p&gt;用户操作：&lt;/p&gt;&lt;p&gt;数据流：&lt;/p&gt;" style="text;html=1;strokeColor=none;fillColor=none;spacing=5;spacingTop=-20;whiteSpace=wrap;overflow=hidden;rounded=0;" vertex="1" parent="1">
          <mxGeometry x="-340" y="324" width="190" height="120" as="geometry" />
        </mxCell>
        <mxCell id="V5kMmdpQEaDHI8ah_SAi-30" value="" style="endArrow=none;html=1;rounded=0;" edge="1" parent="1">
          <mxGeometry width="50" height="50" relative="1" as="geometry">
            <mxPoint x="-275" y="380" as="sourcePoint" />
            <mxPoint x="-215" y="380" as="targetPoint" />
          </mxGeometry>
        </mxCell>
        <mxCell id="V5kMmdpQEaDHI8ah_SAi-31" value="" style="endArrow=none;dashed=1;html=1;dashPattern=1 3;strokeWidth=2;rounded=0;" edge="1" parent="1">
          <mxGeometry width="50" height="50" relative="1" as="geometry">
            <mxPoint x="-280" y="410" as="sourcePoint" />
            <mxPoint x="-210" y="410" as="targetPoint" />
          </mxGeometry>
        </mxCell>
        <mxCell id="4Fa01oT7hVqr7HHOkqir-1" style="edgeStyle=orthogonalEdgeStyle;rounded=0;orthogonalLoop=1;jettySize=auto;html=1;exitX=0.5;exitY=1;exitDx=0;exitDy=0;entryX=0;entryY=0.5;entryDx=0;entryDy=0;dashed=1;dashPattern=8 8;" edge="1" parent="1" source="V5kMmdpQEaDHI8ah_SAi-27" target="V5kMmdpQEaDHI8ah_SAi-35">
          <mxGeometry relative="1" as="geometry" />
        </mxCell>
        <mxCell id="4Fa01oT7hVqr7HHOkqir-2" style="edgeStyle=orthogonalEdgeStyle;rounded=0;orthogonalLoop=1;jettySize=auto;html=1;exitX=0.5;exitY=1;exitDx=0;exitDy=0;entryX=1;entryY=0.5;entryDx=0;entryDy=0;dashed=1;dashPattern=12 12;" edge="1" parent="1" source="V5kMmdpQEaDHI8ah_SAi-35" target="36JzOF9Vr0czZC-aHNhf-3">
          <mxGeometry relative="1" as="geometry" />
        </mxCell>
        <mxCell id="4Fa01oT7hVqr7HHOkqir-7" style="edgeStyle=orthogonalEdgeStyle;rounded=0;orthogonalLoop=1;jettySize=auto;html=1;exitX=0.5;exitY=1;exitDx=0;exitDy=0;entryX=1;entryY=0.5;entryDx=0;entryDy=0;dashed=1;dashPattern=8 8;" edge="1" parent="1" source="4Fa01oT7hVqr7HHOkqir-5" target="4Fa01oT7hVqr7HHOkqir-9">
          <mxGeometry relative="1" as="geometry">
            <mxPoint x="390" y="870" as="targetPoint" />
          </mxGeometry>
        </mxCell>
        <mxCell id="4Fa01oT7hVqr7HHOkqir-8" style="edgeStyle=orthogonalEdgeStyle;rounded=0;orthogonalLoop=1;jettySize=auto;html=1;exitX=0.5;exitY=1;exitDx=0;exitDy=0;entryX=-0.015;entryY=0.607;entryDx=0;entryDy=0;entryPerimeter=0;" edge="1" parent="1" source="36JzOF9Vr0czZC-aHNhf-3" target="4Fa01oT7hVqr7HHOkqir-5">
          <mxGeometry relative="1" as="geometry">
            <mxPoint x="-10" y="720" as="sourcePoint" />
            <mxPoint x="548.1999999999998" y="764.06" as="targetPoint" />
            <Array as="points">
              <mxPoint x="10" y="756" />
            </Array>
          </mxGeometry>
        </mxCell>
      </root>
    </mxGraphModel>
  </diagram>
  <diagram id="v2FPPxEHtAOoA3APONHY" name="第 3 页">
    <mxGraphModel dx="1854" dy="587" grid="1" gridSize="10" guides="1" tooltips="1" connect="1" arrows="1" fold="1" page="1" pageScale="1" pageWidth="827" pageHeight="1169" math="0" shadow="0">
      <root>
        <mxCell id="0" />
        <mxCell id="1" parent="0" />
        <mxCell id="S5pLNYtR8QhVrt4fow2M-1" value="微信公众号端" style="swimlane;whiteSpace=wrap;html=1;" vertex="1" parent="1">
          <mxGeometry x="520" y="270" width="300" height="1060" as="geometry" />
        </mxCell>
        <mxCell id="S5pLNYtR8QhVrt4fow2M-2" value="" style="shape=image;html=1;verticalAlign=top;verticalLabelPosition=bottom;labelBackgroundColor=#ffffff;imageAspect=0;aspect=fixed;image=https://cdn0.iconfinder.com/data/icons/social-media-2104/24/social_media_social_media_logo_wechat-128.png" vertex="1" parent="S5pLNYtR8QhVrt4fow2M-1">
          <mxGeometry x="117.5" y="71.5" width="65" height="65" as="geometry" />
        </mxCell>
        <mxCell id="S5pLNYtR8QhVrt4fow2M-3" value="打开微信公众号，输入随机验证码、硬件识别码" style="rounded=0;whiteSpace=wrap;html=1;" vertex="1" parent="S5pLNYtR8QhVrt4fow2M-1">
          <mxGeometry x="90" y="420" width="120" height="60" as="geometry" />
        </mxCell>
        <mxCell id="S5pLNYtR8QhVrt4fow2M-5" value="云服务器端" style="swimlane;whiteSpace=wrap;html=1;" vertex="1" parent="1">
          <mxGeometry x="220" y="270" width="300" height="1060" as="geometry" />
        </mxCell>
        <mxCell id="S5pLNYtR8QhVrt4fow2M-6" value="" style="image;points=[];aspect=fixed;html=1;align=center;shadow=0;dashed=0;image=img/lib/allied_telesis/storage/Datacenter_Server_Storage_Unit_Large.svg;" vertex="1" parent="S5pLNYtR8QhVrt4fow2M-5">
          <mxGeometry x="111.60000000000002" y="64.39999999999998" width="76.8" height="79.2" as="geometry" />
        </mxCell>
        <mxCell id="S5pLNYtR8QhVrt4fow2M-7" value="记录硬件识别码&lt;br&gt;生成八位随机验证码" style="rounded=0;whiteSpace=wrap;html=1;dashed=1;dashPattern=8 8;" vertex="1" parent="S5pLNYtR8QhVrt4fow2M-5">
          <mxGeometry x="90" y="270" width="120" height="60" as="geometry" />
        </mxCell>
        <mxCell id="S5pLNYtR8QhVrt4fow2M-8" value="传输硬件识别码" style="text;html=1;align=center;verticalAlign=middle;resizable=0;points=[];autosize=1;strokeColor=none;fillColor=none;" vertex="1" parent="S5pLNYtR8QhVrt4fow2M-5">
          <mxGeometry x="-10" y="270" width="110" height="30" as="geometry" />
        </mxCell>
        <mxCell id="S5pLNYtR8QhVrt4fow2M-9" value="传输随机验证码" style="text;html=1;align=center;verticalAlign=middle;resizable=0;points=[];autosize=1;strokeColor=none;fillColor=none;" vertex="1" parent="S5pLNYtR8QhVrt4fow2M-5">
          <mxGeometry x="1.5999999999999943" y="370" width="110" height="30" as="geometry" />
        </mxCell>
        <mxCell id="S5pLNYtR8QhVrt4fow2M-15" value="眼镜端" style="swimlane;whiteSpace=wrap;html=1;" vertex="1" parent="1">
          <mxGeometry x="-100" y="270" width="320" height="1060" as="geometry" />
        </mxCell>
        <mxCell id="S5pLNYtR8QhVrt4fow2M-16" value="" style="shape=image;html=1;verticalAlign=top;verticalLabelPosition=bottom;labelBackgroundColor=#ffffff;imageAspect=0;aspect=fixed;image=https://cdn2.iconfinder.com/data/icons/freecns-cumulus/16/519647-150_Glasses-128.png" vertex="1" parent="S5pLNYtR8QhVrt4fow2M-15">
          <mxGeometry x="86" y="40" width="128" height="128" as="geometry" />
        </mxCell>
        <mxCell id="S5pLNYtR8QhVrt4fow2M-17" value="启动应用" style="rounded=1;whiteSpace=wrap;html=1;" vertex="1" parent="S5pLNYtR8QhVrt4fow2M-15">
          <mxGeometry x="90" y="168" width="120" height="60" as="geometry" />
        </mxCell>
        <mxCell id="S5pLNYtR8QhVrt4fow2M-18" value="建立通讯" style="text;html=1;align=center;verticalAlign=middle;resizable=0;points=[];autosize=1;strokeColor=none;fillColor=none;" vertex="1" parent="S5pLNYtR8QhVrt4fow2M-15">
          <mxGeometry x="230" y="270" width="70" height="30" as="geometry" />
        </mxCell>
        <mxCell id="S5pLNYtR8QhVrt4fow2M-19" value="展示随机验证码与硬件识别码" style="rounded=0;whiteSpace=wrap;html=1;" vertex="1" parent="S5pLNYtR8QhVrt4fow2M-15">
          <mxGeometry x="90" y="370" width="120" height="60" as="geometry" />
        </mxCell>
        <mxCell id="S5pLNYtR8QhVrt4fow2M-20" value="&lt;h1&gt;注册流程图说明&lt;/h1&gt;&lt;p&gt;用户操作：&lt;/p&gt;&lt;p&gt;数据流：&lt;/p&gt;" style="text;html=1;strokeColor=none;fillColor=none;spacing=5;spacingTop=-20;whiteSpace=wrap;overflow=hidden;rounded=0;" vertex="1" parent="1">
          <mxGeometry x="-300" y="294" width="190" height="120" as="geometry" />
        </mxCell>
        <mxCell id="S5pLNYtR8QhVrt4fow2M-21" value="" style="endArrow=none;html=1;rounded=0;" edge="1" parent="1">
          <mxGeometry width="50" height="50" relative="1" as="geometry">
            <mxPoint x="-235" y="350" as="sourcePoint" />
            <mxPoint x="-175" y="350" as="targetPoint" />
          </mxGeometry>
        </mxCell>
        <mxCell id="S5pLNYtR8QhVrt4fow2M-22" value="" style="endArrow=none;dashed=1;html=1;dashPattern=1 3;strokeWidth=2;rounded=0;" edge="1" parent="1">
          <mxGeometry width="50" height="50" relative="1" as="geometry">
            <mxPoint x="-240" y="380" as="sourcePoint" />
            <mxPoint x="-170" y="380" as="targetPoint" />
          </mxGeometry>
        </mxCell>
        <mxCell id="S5pLNYtR8QhVrt4fow2M-23" style="edgeStyle=orthogonalEdgeStyle;rounded=0;orthogonalLoop=1;jettySize=auto;html=1;exitX=0.5;exitY=1;exitDx=0;exitDy=0;entryX=0;entryY=0.5;entryDx=0;entryDy=0;dashed=1;dashPattern=8 8;" edge="1" parent="1" source="S5pLNYtR8QhVrt4fow2M-17" target="S5pLNYtR8QhVrt4fow2M-7">
          <mxGeometry relative="1" as="geometry" />
        </mxCell>
        <mxCell id="S5pLNYtR8QhVrt4fow2M-24" style="edgeStyle=orthogonalEdgeStyle;rounded=0;orthogonalLoop=1;jettySize=auto;html=1;exitX=0.5;exitY=1;exitDx=0;exitDy=0;entryX=1;entryY=0.5;entryDx=0;entryDy=0;dashed=1;dashPattern=12 12;" edge="1" parent="1" source="S5pLNYtR8QhVrt4fow2M-7" target="S5pLNYtR8QhVrt4fow2M-19">
          <mxGeometry relative="1" as="geometry" />
        </mxCell>
        <mxCell id="S5pLNYtR8QhVrt4fow2M-26" style="edgeStyle=orthogonalEdgeStyle;rounded=0;orthogonalLoop=1;jettySize=auto;html=1;exitX=0.5;exitY=1;exitDx=0;exitDy=0;entryX=-0.015;entryY=0.607;entryDx=0;entryDy=0;entryPerimeter=0;" edge="1" parent="1" source="S5pLNYtR8QhVrt4fow2M-19" target="S5pLNYtR8QhVrt4fow2M-3">
          <mxGeometry relative="1" as="geometry">
            <mxPoint x="30" y="690" as="sourcePoint" />
            <mxPoint x="588.1999999999998" y="734.06" as="targetPoint" />
            <Array as="points">
              <mxPoint x="50" y="726" />
            </Array>
          </mxGeometry>
        </mxCell>
      </root>
    </mxGraphModel>
  </diagram>
</mxfile>
